PathFileType	4	(X/Y/Z)	path1_06_0-578.trc
DataRate	CameraRate	NumFrames	NumMarkers	Units	OrigDataRate	OrigDataStartFrame	OrigNumFrames
30	30	5	22	m	30	216	578
Frame#	Time	Hip			RHip			RKnee			RAnkle			RBigToe			RSmallToe			RHeel			LHip			LKnee			LAnkle			LBigToe			LSmallToe			LHeel			Neck			Head			Nose			RShoulder			RElbow			RWrist			LShoulder			LElbow			LWrist		
		X1	Y1	Z1	X2	Y2	Z2	X3	Y3	Z3	X4	Y4	Z4	X5	Y5	Z5	X6	Y6	Z6	X7	Y7	Z7	X8	Y8	Z8	X9	Y9	Z9	X10	Y10	Z10	X11	Y11	Z11	X12	Y12	Z12	X13	Y13	Z13	X14	Y14	Z14	X15	Y15	Z15	X16	Y16	Z16	X17	Y17	Z17	X18	Y18	Z18	X19	Y19	Z19	X20	Y20	Z20	X21	Y21	Z21	X22	Y22	Z22
217	7.233333333333333	2.5999653864745538	0.8335544029193573	0.756610531088736	2.6068834125219613	0.7991213508465369	0.682263500102543	2.574835107639525	0.47313978842711046	0.6584194225387516	2.6351162327964954	0.10602353038433478	0.6645182604555555	2.453985044344521	0.029866491080787837	0.6404025310760653	2.4980301340699715	0.024350765133483044	0.5858347040541823	2.7011619121476	0.02154927181902658	0.681847950004114	2.5889538604224867	0.7996612309495591	0.8449543811439783	2.579504915429014	0.45694848710988356	0.8383015976321843	2.634534028176035	0.10452918353812529	0.8347643101843141	2.483803399330823	0.004885581823895326	0.8665410374346956	2.4958879137298737	0.027841869389877552	0.9130906876605916	2.6885641465709105	0.03148579699222017	0.8306083959170911	2.5512612600385998	1.4635795917490724	0.7676086325003665	2.5014808395579458	1.7057874701155944	0.7268442709071254	2.42340979096188	1.6088385101235831	0.7391750846625408	2.603407367007566	1.3704451934384845	0.5991992721448979	2.595589611586754	1.0765409822941714	0.5428151474278735	2.5675436597270838	0.8454907181283817	0.5430771322597886	2.5496669474980425	1.3437589053581636	0.9410915220956091	2.6080511794809524	1.0686368907189236	0.9627900812911571	2.593924019807726	0.838836473183314	0.9637037720950062
218	7.266666666666667	2.600333511400425	0.8334279281802452	0.7567687191032486	2.6070510338035255	0.7989869775707001	0.6823981212752223	2.574759887384259	0.47334015165810517	0.6582060121450057	2.6341363817941703	0.10694179879005909	0.6627302510142836	2.4543166345259957	0.02964903907158153	0.6406897233662048	2.4983606740741267	0.0241324590478161	0.5861650743246384	2.701349243181741	0.02193269952227321	0.6825580580775983	2.589365116565172	0.7996817018521397	0.8448773314901392	2.5804504076665413	0.45640502577856856	0.8392562653748489	2.6337023429595865	0.10570010451946343	0.834219230876973	2.481865558574221	0.005881368433750993	0.8656233868966262	2.4940102227958754	0.028661001088678143	0.9124274868114972	2.688135304439273	0.0323688874658669	0.8307997628164149	2.5512286621536853	1.4633136598713457	0.766914018687317	2.4997349374387547	1.704391645811473	0.7289115694629505	2.423973296798268	1.6086804518203457	0.7394961968606761	2.603877390263592	1.370129603328876	0.5988690858190665	2.5966033427398276	1.0757325480339683	0.5439480794928324	2.5678475295044496	0.8449467408321147	0.543348205564936	2.550515286683083	1.3437122110322741	0.9405088857398867	2.6087237400651233	1.06915858600328	0.9629400984094134	2.5943305956353697	0.8392353152813952	0.9637651800822631
219	7.3	2.601072485461622	0.8332426128179868	0.7570026367381095	2.6074355404735696	0.7992778764794002	0.6822727587401364	2.5748587844414104	0.47358942345135885	0.6580318610140252	2.6335379291176038	0.10760635715935245	0.6614969437158902	2.4545531679093475	0.029528446093180963	0.6411588111995483	2.498476431781152	0.024062127834073258	0.586520921807218	2.7015752556709516	0.022319434417282236	0.682700815450079	2.589750994002571	0.7999743769273696	0.8447119271093197	2.5818825309034725	0.45537428803515234	0.8408960571222859	2.6335274823697072	0.10648028098563767	0.8345416064017099	2.479122624965966	0.007569505026475168	0.8640847708061422	2.491705369555328	0.02978858543431208	0.9118416105442894	2.6879948386781676	0.033020406032911204	0.8311696031070646	2.5511119035612824	1.4629144924820383	0.7660532041234308	2.5013080682009603	1.705360191348372	0.7276691519258798	2.424659984821694	1.6085426240061091	0.7396669577174533	2.6042805359454055	1.3698920512636348	0.5983603658619734	2.5982299315715047	1.075021837833721	0.5456141509692229	2.5682476092217525	0.84433356365915	0.5435468590116681	2.551894440710185	1.3438424005274074	0.9394199161841642	2.6094691307473483	1.0697018987500502	0.9631788230989606	2.594861254505461	0.8397086312139365	0.9638504838617048
220	7.333333333333333	2.602178733820379	0.8330122570089296	0.7572678504504593	2.6080695483842424	0.8001940857519503	0.6818627561058165	2.575169530871588	0.47379210786077003	0.6579835374260739	2.633192593592658	0.10807421024718926	0.6608774742775433	2.4545694979882313	0.02958458034125606	0.6417494697598335	2.4983064443695056	0.02418227612136311	0.5868862618303482	2.701675692967461	0.02287566731408359	0.6826501596235915	2.5901732313631665	0.8007162706466366	0.8444902181408301	2.5839898767238343	0.45359809163945286	0.843191872647935	2.633927546810337	0.10683811945091178	0.8355999309074432	2.4757955251543864	0.009979749861849607	0.8631965096621859	2.489606990347739	0.030960509714040022	0.9115799711329139	2.688184555992258	0.033280902187336835	0.8317912330952131	2.5507054887447036	1.4621702203436826	0.7649555632775077	2.504417723204523	1.7080372761729834	0.7244096078326835	2.4254502936641016	1.6083295136053049	0.7394909222985822	2.604631591793781	1.3697829522856013	0.5978136453158862	2.6003256857250636	1.0744856326732064	0.5477041229631489	2.5687549982657205	0.8436654730744492	0.5436555713006784	2.5539112522598657	1.3442099332959894	0.9377220248243959	2.6103044767308585	1.0701685223977244	0.9634185927317512	2.5954740065457886	0.8401556707953949	0.9639367779025909
221	7.366666666666666	2.603424541825896	0.832821880775784	0.7574673805674039	2.6086664042150365	0.8016701194200992	0.6810214620674366	2.575620471901896	0.473814837415077	0.6580529088594114	2.6330620471658466	0.10824839976449445	0.6608730730127454	2.4544417484882555	0.029730102602483523	0.6423551406827692	2.4980199483909447	0.024389514622218413	0.5872524932141789	2.7016750532326297	0.02348625385847437	0.6826265008871149	2.590612152073162	0.8018235619737355	0.8440310311674105	2.5868962664320008	0.45106656950817264	0.8456169040364119	2.6349853883263203	0.10661652752843215	0.8372655784183792	2.472787095999095	0.012335089178814807	0.8636971987289476	2.4883545703042524	0.031849491297956174	0.9117652134887764	2.6888958266259144	0.033042833445774064	0.8327984114975943	2.549890898983745	1.460995563546617	0.7636053434645234	2.5079627910230946	1.711877766715943	0.7199761026023404	2.4263301559494406	1.607947155543238	0.7388828531390134	2.604911467401504	1.3698019054435933	0.5973310025309335	2.602329784207899	1.074161348458895	0.5496463036238544	2.569329913322496	0.8430756653778947	0.5436676073624418	2.5564391440627174	1.3447362917838799	0.9354710926739385	2.6112112632417723	1.0704341054591429	0.9634536957008742	2.5960810480173393	0.8404882873496005	0.9639821504821146
